<?xml version="1.0" standalone="no"?>
<!DOCTYPE svg PUBLIC "-//W3C//DTD SVG 20010904//EN"
 "http://www.w3.org/TR/2001/REC-SVG-20010904/DTD/svg10.dtd">
<svg version="1.0" xmlns="http://www.w3.org/2000/svg"
 width="500.000000pt" height="500.000000pt" viewBox="0 0 500.000000 500.000000"
 preserveAspectRatio="xMidYMid meet">
<metadata>
Created by potrace 1.14, written by Peter Selinger 2001-2017
</metadata>
<g transform="translate(0.000000,500.000000) scale(0.100000,-0.100000)"
fill="#000000" stroke="none">
<path d="M610 3335 c0 -12 282 -1255 381 -1677 l21 -88 136 0 137 0 184 671
c102 368 189 673 194 676 4 3 11 3 14 -1 4 -4 373 -1331 373 -1343 0 -2 62 -3
138 -3 l138 0 199 868 c109 477 200 877 203 890 4 22 3 22 -97 22 -55 0 -101
-2 -101 -5 0 -3 -74 -332 -165 -730 -91 -398 -165 -726 -165 -729 0 -3 -8 -6
-17 -6 -15 0 -50 118 -217 735 l-200 735 -95 0 -96 0 -200 -735 c-157 -582
-202 -735 -215 -735 -13 0 -47 137 -179 718 -89 394 -165 725 -167 735 -5 15
-19 17 -105 17 -82 0 -99 -3 -99 -15z"/>
<path d="M3486 3248 c-20 -57 -160 -456 -310 -888 l-274 -785 106 -3 c67 -2
108 1 112 8 4 6 42 116 86 245 l79 235 379 -2 379 -3 81 -242 81 -243 112 0
112 0 -39 113 c-32 96 -537 1543 -570 1635 l-12 32 -143 0 -143 0 -36 -102z
m199 -135 c11 -29 295 -873 295 -878 0 -3 -142 -5 -315 -5 -235 0 -315 3 -315
12 0 10 260 784 289 861 12 31 35 36 46 10z"/>
</g>
</svg>
